<?xml version="1.0" encoding="utf-8"?>
<!-- Generator: Adobe Illustrator 21.1.0, SVG Export Plug-In . SVG Version: 6.00 Build 0)  -->
<svg version="1.1" id="Ebene_1" xmlns="http://www.w3.org/2000/svg" xmlns:xlink="http://www.w3.org/1999/xlink" x="0px" y="0px"
	 viewBox="0 0 510.2 99.2" style="enable-background:new 0 0 510.2 99.2;" xml:space="preserve">
<style type="text/css">
	.st0{fill:#155A7F;}
	.st1{fill:#676C6A;}
</style>
<g>
	<path class="st0" d="M75.3,57.9c0-0.1,8.3-9.2,8.3-9.2c7.2,5.3,21.9,26.6,33.9,17.6c5.3-4,6.5-12.1,4.2-19.4
		c-2.3-7.5-9.6-17.6-22.5-14.7c-12.3,2.7-39.5,41.7-53.3,48.7c-9.3,4.7-19.5,3.1-24.8-13.6c-3.8-12.2,0.3-27.2,10-33.7
		c0,0,4.5,6.1,11.8,4.7c7.3-1.4,9.1-7.9,9.1-7.9c8.4,1.3,13.5,4.6,13.5,4.6l-8,9.3c0,0-14.6-6.4-22,5.2c-3.8,5.8-5,17.5,2.6,18.2
		C43,68.1,58,48.3,70.7,34.3c12.7-13.9,28.9-21,42.5-17.3c13.6,3.7,25,17.7,25.5,34.6c0.5,16.9-9.7,31.5-25.4,31.4
		C93.1,82.8,84.1,64.6,75.3,57.9"/>
	<path class="st0" d="M40.8,35.8c5.1,0,9.3-4.2,9.3-9.3c0-5.2-4.2-9.3-9.3-9.3s-9.3,4.2-9.3,9.3C31.5,31.7,35.6,35.8,40.8,35.8"/>
	<path class="st1" d="M481,82.6h2v-9.1l7.7-12h-2.2l-6.5,10l-6.4-10h-2.4l7.7,12V82.6z M463.9,82.6h2V63.3h7.2v-1.8h-16.4v1.8h7.2
		V82.6z M451.5,82.6h2V61.5h-2V82.6z M428.3,82.6h2V64.2h0.1l12.8,18.5h2.5V61.5h-2V80h-0.1l-12.8-18.5h-2.5V82.6z M420.5,82.6h2
		V61.5h-2V82.6z M404,82.6h2v-10h9.9v-1.8h-9.9v-7.5h10.7v-1.8H404V82.6z M380.8,82.6h2V64.2h0.1l12.8,18.5h2.5V61.5h-2V80h-0.1
		l-12.8-18.5h-2.5V82.6z M373,82.6h2V61.5h-2V82.6z M352.8,82.6h2V63.3h7.2v-1.8h-16.4v1.8h7.2V82.6z M341.9,75.2h-9.7l4.9-11.6
		L341.9,75.2z M327,82.6h2.1l2.4-5.6h11.2l2.3,5.6h2.2l-8.9-21.1h-2L327,82.6z M309.3,82.6h2v-9.1l7.7-12h-2.2l-6.5,10l-6.4-10h-2.4
		l7.7,12V82.6z M287,82.6h2v-10h3.7l5.9,10h2.2l-6.1-10.1c2.3-0.3,5.4-1.4,5.4-5.4c0-5.5-5.8-5.5-7.5-5.5H287V82.6z M289,63.3h4.2
		c4.1,0,4.9,2.3,4.9,3.8c0,1.5-0.8,3.8-4.9,3.8H289V63.3z M274.3,82.6h2V63.3h7.2v-1.8h-16.4v1.8h7.2V82.6z M251.6,82.6H265v-1.8
		h-11.4v-8.2h10.3v-1.8h-10.3v-7.5h10.9v-1.8h-12.9V82.6z M224.6,82.6h2V64h0.1l8.2,18.6h0.9l8-18.6h0.1v18.6h2V61.5H243l-7.7,17.7
		l-7.7-17.7h-2.9V82.6z M200.1,72.1c0-5.2,3.5-9.3,9-9.3s9,4.1,9,9.3c0,5.2-3.5,9.3-9,9.3S200.1,77.3,200.1,72.1 M198.1,72.1
		c0,6.4,4.5,11.1,11,11.1c6.5,0,11-4.7,11-11.1c0-6.4-4.5-11.1-11-11.1C202.6,61,198.1,65.7,198.1,72.1 M181.5,82.6h13.4v-1.8h-11.4
		v-8.2h10.3v-1.8h-10.3v-7.5h10.9v-1.8h-12.9V82.6z M175.4,71.3h-7V73h5.1v7.1c-1.6,1-3.6,1.3-5.9,1.3c-5.5,0-8.9-4.1-8.9-9.3
		c0-5.2,3.4-9.3,8.9-9.3c2.3,0,4.9,1.1,6.2,2.6l1.4-1.5c-1.9-2-4.5-2.9-7.6-2.9c-6.4,0-10.9,4.6-10.9,11.1c0,6.4,4.5,11.1,10.9,11.1
		c2.7,0,5.4-0.5,7.9-1.9V71.3z"/>
	<path class="st0" d="M304.5,44.1c0-2.6,2.1-4.8,4.8-4.8c2.6,0,4.8,2.1,4.8,4.8s-2.1,4.8-4.8,4.8C306.6,48.9,304.5,46.7,304.5,44.1
		 M309,26.4L302.3,37c-1.4,2.3-2.4,4.4-2.4,7.2c0,5.6,3.8,8.9,9.3,8.9c5.4,0,9.3-3.5,9.3-9c0-4.6-3.3-8.4-7.9-8.4
		c-0.9,0-1.9,0.1-2.4,0.4l-0.1-0.1l6.3-9.7H309z M278.5,52.6H296v-4h-12.1l8.1-7.5c2.3-2.1,4-4.4,4-7.7c0-5-3.8-7.4-8.5-7.4
		c-4.7,0-8.3,2.6-8.7,7.4l4.7,0.4c0.3-2.1,1.9-3.6,4-3.6c2,0,3.8,1.3,3.8,3.4c0,1.8-1.5,3.3-2.7,4.4l-10.2,9.8V52.6z M260.3,39.5
		c0-3.3,0.6-9.3,5-9.3c4.4,0,5,6.1,5,9.3c0,3.3-0.6,9.3-5,9.3C260.9,48.9,260.3,42.8,260.3,39.5 M255.9,39.5
		c0,12.4,6.5,13.5,9.5,13.5c2.9,0,9.5-1.1,9.5-13.5S268.3,26,265.4,26C262.4,26,255.9,27.1,255.9,39.5 M234.7,52.6h17.5v-4h-12.1
		l8.1-7.5c2.3-2.1,4-4.4,4-7.7c0-5-3.8-7.4-8.5-7.4c-4.7,0-8.3,2.6-8.7,7.4l4.7,0.4c0.3-2.1,1.9-3.6,4-3.6c2,0,3.8,1.3,3.8,3.4
		c0,1.8-1.5,3.3-2.7,4.4l-10.2,9.8V52.6z M206.5,37.8v-7.4h3.3c2.5,0,5.6,0.4,5.6,3.7c0,3.6-3.4,3.7-6.1,3.7H206.5z M201.9,52.6h4.7
		V41.8h3.3c5.6,0,10.5-1.2,10.5-7.8c0-5.8-4.6-7.6-9.7-7.6h-8.8V52.6z M183.9,37.8v-7.4h3.3c2.5,0,5.6,0.4,5.6,3.7
		c0,3.6-3.4,3.7-6.1,3.7H183.9z M179.3,52.6h4.7V41.8h3.3c5.5,0,10.5-1.2,10.5-7.8c0-5.8-4.6-7.6-9.7-7.6h-8.8V52.6z M174.3,28.5
		c-2-1.9-4.8-2.7-7.5-2.7c-4.8,0-9.7,2.5-9.7,7.9c0,9.4,12.4,6.1,12.4,11.8c0,2.4-2.4,3.6-4.6,3.6c-2.1,0-4-1-5.2-2.7l-3.5,3.4
		c2.1,2.6,5.3,3.6,8.6,3.6c5.1,0,9.6-2.7,9.6-8.4c0-9.3-12.4-6.3-12.4-11.6c0-2.4,2.1-3.4,4.3-3.4c1.8,0,3.6,0.7,4.6,2.1L174.3,28.5
		z"/>
</g>
</svg>
